<?xml version="1.0" encoding="UTF-8"?>
<svg width="659px" height="186px" viewBox="0 0 659 186" version="1.1" xmlns="http://www.w3.org/2000/svg" xmlns:xlink="http://www.w3.org/1999/xlink">
    <!-- Generator: Sketch 41.2 (35397) - http://www.bohemiancoding.com/sketch -->
    <title>ames</title>
    <desc>Created with Sketch.</desc>
    <defs></defs>
    <g id="Page-1" stroke="none" stroke-width="1" fill="none" fill-rule="evenodd">
        <g id="Desktop-HD" transform="translate(-397.000000, -110.000000)">
            <g id="ames" transform="translate(322.000000, 0.000000)">
                <g>
                    <g id="Ashoka_Chakra">
                        <g id="Group">
                            <path d="M167.637813,110.734126 C116.621444,110.734126 75.2645052,152.136464 75.2645052,203.208836 C75.2645052,254.281209 116.621444,295.683547 167.637813,295.683547 C218.654182,295.683547 260.011121,254.281209 260.011121,203.208836 C260.011121,152.136464 218.654182,110.734126 167.637813,110.734126 L167.637813,110.734126 Z M167.637813,122.293464 C122.99849,122.293464 86.8111687,158.52051 86.8111687,203.208836 C86.8111687,247.897162 122.99849,284.124208 167.637813,284.124208 C212.277136,284.124208 248.464457,247.897162 248.464457,203.208836 C248.464457,158.52051 212.277136,122.293464 167.637813,122.293464 L167.637813,122.293464 Z" id="Shape" fill="#19227D"></path>
                            <ellipse id="Oval" fill="#19227D" cx="167.637813" cy="203.208836" rx="16.1653289" ry="16.1830744"></ellipse>
                            <g id="d" transform="translate(15.669381, 133.914856)" fill="#000088">
                                <g id="c" transform="translate(78.842309, 59.575539)">
                                    <g id="b" transform="translate(48.634084, 13.443418)">
                                        <g id="a" transform="translate(21.638326, 1.830003)">
                                            <ellipse id="Oval" transform="translate(82.988875, 5.006596) rotate(7.500000) translate(-82.988875, -5.006596) " cx="82.9888748" cy="5.00659569" rx="4.04133221" ry="4.0457686"></ellipse>
                                            <path d="M2.85371369,75.3603922 L5.62491292,26.8111691 L2.85371369,3.69249138 L0.0825144573,26.8111691 L2.85371369,75.3603922 Z" id="Shape"></path>
                                        </g>
                                        <g id="a-link" transform="translate(53.440973, 48.785396) rotate(15.000000) translate(-53.440973, -48.785396) translate(8.940973, 10.285396)">
                                            <g id="a" transform="translate(0.108111, 0.834334)">
                                                <ellipse id="Oval" transform="translate(82.988875, 5.006596) rotate(7.500000) translate(-82.988875, -5.006596) " cx="82.9888748" cy="5.00659569" rx="4.04133221" ry="4.0457686"></ellipse>
                                                <path d="M2.85371369,75.3603922 L5.62491292,26.8111691 L2.85371369,3.69249138 L0.0825144573,26.8111691 L2.85371369,75.3603922 Z" id="Shape"></path>
                                            </g>
                                        </g>
                                    </g>
                                    <g id="b-link" transform="translate(73.181348, 71.083695) rotate(30.000000) translate(-73.181348, -71.083695) translate(17.681348, 21.583695)">
                                        <g id="b" transform="translate(0.310827, 0.108276)">
                                            <g id="a" transform="translate(21.638326, 1.830003)">
                                                <ellipse id="Oval" transform="translate(82.988875, 5.006596) rotate(7.500000) translate(-82.988875, -5.006596) " cx="82.9888748" cy="5.00659569" rx="4.04133221" ry="4.0457686"></ellipse>
                                                <path d="M2.85371369,75.3603922 L5.62491292,26.8111691 L2.85371369,3.69249138 L0.0825144573,26.8111691 L2.85371369,75.3603922 Z" id="Shape"></path>
                                            </g>
                                            <g id="a-link" transform="translate(53.440973, 48.785396) rotate(15.000000) translate(-53.440973, -48.785396) translate(8.940973, 10.285396)">
                                                <g id="a" transform="translate(0.108111, 0.834334)">
                                                    <ellipse id="Oval" transform="translate(82.988875, 5.006596) rotate(7.500000) translate(-82.988875, -5.006596) " cx="82.9888748" cy="5.00659569" rx="4.04133221" ry="4.0457686"></ellipse>
                                                    <path d="M2.85371369,75.3603922 L5.62491292,26.8111691 L2.85371369,3.69249138 L0.0825144573,26.8111691 L2.85371369,75.3603922 Z" id="Shape"></path>
                                                </g>
                                            </g>
                                        </g>
                                    </g>
                                </g>
                                <g id="c-link" transform="translate(102.081387, 105.667339) rotate(60.000000) translate(-102.081387, -105.667339) translate(22.081387, 34.167339)">
                                    <g id="c" transform="translate(0.350781, 0.343901)">
                                        <g id="b" transform="translate(48.634084, 13.443418)">
                                            <g id="a" transform="translate(21.638326, 1.830003)">
                                                <ellipse id="Oval" transform="translate(82.988875, 5.006596) rotate(7.500000) translate(-82.988875, -5.006596) " cx="82.9888748" cy="5.00659569" rx="4.04133221" ry="4.0457686"></ellipse>
                                                <path d="M2.85371369,75.3603922 L5.62491292,26.8111691 L2.85371369,3.69249138 L0.0825144573,26.8111691 L2.85371369,75.3603922 Z" id="Shape"></path>
                                            </g>
                                            <g id="a-link" transform="translate(53.440973, 48.785396) rotate(15.000000) translate(-53.440973, -48.785396) translate(8.940973, 10.285396)">
                                                <g id="a" transform="translate(0.108111, 0.834334)">
                                                    <ellipse id="Oval" transform="translate(82.988875, 5.006596) rotate(7.500000) translate(-82.988875, -5.006596) " cx="82.9888748" cy="5.00659569" rx="4.04133221" ry="4.0457686"></ellipse>
                                                    <path d="M2.85371369,75.3603922 L5.62491292,26.8111691 L2.85371369,3.69249138 L0.0825144573,26.8111691 L2.85371369,75.3603922 Z" id="Shape"></path>
                                                </g>
                                            </g>
                                        </g>
                                        <g id="b-link" transform="translate(73.181348, 71.083695) rotate(30.000000) translate(-73.181348, -71.083695) translate(17.681348, 21.583695)">
                                            <g id="b" transform="translate(0.310827, 0.108276)">
                                                <g id="a" transform="translate(21.638326, 1.830003)">
                                                    <ellipse id="Oval" transform="translate(82.988875, 5.006596) rotate(7.500000) translate(-82.988875, -5.006596) " cx="82.9888748" cy="5.00659569" rx="4.04133221" ry="4.0457686"></ellipse>
                                                    <path d="M2.85371369,75.3603922 L5.62491292,26.8111691 L2.85371369,3.69249138 L0.0825144573,26.8111691 L2.85371369,75.3603922 Z" id="Shape"></path>
                                                </g>
                                                <g id="a-link" transform="translate(53.440973, 48.785396) rotate(15.000000) translate(-53.440973, -48.785396) translate(8.940973, 10.285396)">
                                                    <g id="a" transform="translate(0.108111, 0.834334)">
                                                        <ellipse id="Oval" transform="translate(82.988875, 5.006596) rotate(7.500000) translate(-82.988875, -5.006596) " cx="82.9888748" cy="5.00659569" rx="4.04133221" ry="4.0457686"></ellipse>
                                                        <path d="M2.85371369,75.3603922 L5.62491292,26.8111691 L2.85371369,3.69249138 L0.0825144573,26.8111691 L2.85371369,75.3603922 Z" id="Shape"></path>
                                                    </g>
                                                </g>
                                            </g>
                                        </g>
                                    </g>
                                </g>
                            </g>
                            <g id="d-link" transform="translate(152.214806, 156.690221) rotate(120.000000) translate(-152.214806, -156.690221) translate(32.714806, 50.690221)" fill="#000088">
                                <g id="d" transform="translate(0.061102, 0.076889)">
                                    <g id="c" transform="translate(78.842309, 59.575539)">
                                        <g id="b" transform="translate(48.634084, 13.443418)">
                                            <g id="a" transform="translate(21.638326, 1.830003)">
                                                <ellipse id="Oval" transform="translate(82.988875, 5.006596) rotate(7.500000) translate(-82.988875, -5.006596) " cx="82.9888748" cy="5.00659569" rx="4.04133221" ry="4.0457686"></ellipse>
                                                <path d="M2.85371369,75.3603922 L5.62491292,26.8111691 L2.85371369,3.69249138 L0.0825144573,26.8111691 L2.85371369,75.3603922 Z" id="Shape"></path>
                                            </g>
                                            <g id="a-link" transform="translate(53.440973, 48.785396) rotate(15.000000) translate(-53.440973, -48.785396) translate(8.940973, 10.285396)">
                                                <g id="a" transform="translate(0.108111, 0.834334)">
                                                    <ellipse id="Oval" transform="translate(82.988875, 5.006596) rotate(7.500000) translate(-82.988875, -5.006596) " cx="82.9888748" cy="5.00659569" rx="4.04133221" ry="4.0457686"></ellipse>
                                                    <path d="M2.85371369,75.3603922 L5.62491292,26.8111691 L2.85371369,3.69249138 L0.0825144573,26.8111691 L2.85371369,75.3603922 Z" id="Shape"></path>
                                                </g>
                                            </g>
                                        </g>
                                        <g id="b-link" transform="translate(73.181348, 71.083695) rotate(30.000000) translate(-73.181348, -71.083695) translate(17.681348, 21.583695)">
                                            <g id="b" transform="translate(0.310827, 0.108276)">
                                                <g id="a" transform="translate(21.638326, 1.830003)">
                                                    <ellipse id="Oval" transform="translate(82.988875, 5.006596) rotate(7.500000) translate(-82.988875, -5.006596) " cx="82.9888748" cy="5.00659569" rx="4.04133221" ry="4.0457686"></ellipse>
                                                    <path d="M2.85371369,75.3603922 L5.62491292,26.8111691 L2.85371369,3.69249138 L0.0825144573,26.8111691 L2.85371369,75.3603922 Z" id="Shape"></path>
                                                </g>
                                                <g id="a-link" transform="translate(53.440973, 48.785396) rotate(15.000000) translate(-53.440973, -48.785396) translate(8.940973, 10.285396)">
                                                    <g id="a" transform="translate(0.108111, 0.834334)">
                                                        <ellipse id="Oval" transform="translate(82.988875, 5.006596) rotate(7.500000) translate(-82.988875, -5.006596) " cx="82.9888748" cy="5.00659569" rx="4.04133221" ry="4.0457686"></ellipse>
                                                        <path d="M2.85371369,75.3603922 L5.62491292,26.8111691 L2.85371369,3.69249138 L0.0825144573,26.8111691 L2.85371369,75.3603922 Z" id="Shape"></path>
                                                    </g>
                                                </g>
                                            </g>
                                        </g>
                                    </g>
                                    <g id="c-link" transform="translate(102.081387, 105.667339) rotate(60.000000) translate(-102.081387, -105.667339) translate(22.081387, 34.167339)">
                                        <g id="c" transform="translate(0.350781, 0.343901)">
                                            <g id="b" transform="translate(48.634084, 13.443418)">
                                                <g id="a" transform="translate(21.638326, 1.830003)">
                                                    <ellipse id="Oval" transform="translate(82.988875, 5.006596) rotate(7.500000) translate(-82.988875, -5.006596) " cx="82.9888748" cy="5.00659569" rx="4.04133221" ry="4.0457686"></ellipse>
                                                    <path d="M2.85371369,75.3603922 L5.62491292,26.8111691 L2.85371369,3.69249138 L0.0825144573,26.8111691 L2.85371369,75.3603922 Z" id="Shape"></path>
                                                </g>
                                                <g id="a-link" transform="translate(53.440973, 48.785396) rotate(15.000000) translate(-53.440973, -48.785396) translate(8.940973, 10.285396)">
                                                    <g id="a" transform="translate(0.108111, 0.834334)">
                                                        <ellipse id="Oval" transform="translate(82.988875, 5.006596) rotate(7.500000) translate(-82.988875, -5.006596) " cx="82.9888748" cy="5.00659569" rx="4.04133221" ry="4.0457686"></ellipse>
                                                        <path d="M2.85371369,75.3603922 L5.62491292,26.8111691 L2.85371369,3.69249138 L0.0825144573,26.8111691 L2.85371369,75.3603922 Z" id="Shape"></path>
                                                    </g>
                                                </g>
                                            </g>
                                            <g id="b-link" transform="translate(73.181348, 71.083695) rotate(30.000000) translate(-73.181348, -71.083695) translate(17.681348, 21.583695)">
                                                <g id="b" transform="translate(0.310827, 0.108276)">
                                                    <g id="a" transform="translate(21.638326, 1.830003)">
                                                        <ellipse id="Oval" transform="translate(82.988875, 5.006596) rotate(7.500000) translate(-82.988875, -5.006596) " cx="82.9888748" cy="5.00659569" rx="4.04133221" ry="4.0457686"></ellipse>
                                                        <path d="M2.85371369,75.3603922 L5.62491292,26.8111691 L2.85371369,3.69249138 L0.0825144573,26.8111691 L2.85371369,75.3603922 Z" id="Shape"></path>
                                                    </g>
                                                    <g id="a-link" transform="translate(53.440973, 48.785396) rotate(15.000000) translate(-53.440973, -48.785396) translate(8.940973, 10.285396)">
                                                        <g id="a" transform="translate(0.108111, 0.834334)">
                                                            <ellipse id="Oval" transform="translate(82.988875, 5.006596) rotate(7.500000) translate(-82.988875, -5.006596) " cx="82.9888748" cy="5.00659569" rx="4.04133221" ry="4.0457686"></ellipse>
                                                            <path d="M2.85371369,75.3603922 L5.62491292,26.8111691 L2.85371369,3.69249138 L0.0825144573,26.8111691 L2.85371369,75.3603922 Z" id="Shape"></path>
                                                        </g>
                                                    </g>
                                                </g>
                                            </g>
                                        </g>
                                    </g>
                                </g>
                            </g>
                            <g id="d-link" transform="translate(215.443831, 213.689905) rotate(240.000000) translate(-215.443831, -213.689905) translate(96.443831, 108.189905)" fill="#000088">
                                <g id="d" transform="translate(0.000000, -0.000000)">
                                    <g id="c" transform="translate(78.842309, 59.575539)">
                                        <g id="b" transform="translate(48.634084, 13.443418)">
                                            <g id="a" transform="translate(21.638326, 1.830003)">
                                                <ellipse id="Oval" transform="translate(82.988875, 5.006596) rotate(7.500000) translate(-82.988875, -5.006596) " cx="82.9888748" cy="5.00659569" rx="4.04133221" ry="4.0457686"></ellipse>
                                                <path d="M2.85371369,75.3603922 L5.62491292,26.8111691 L2.85371369,3.69249138 L0.0825144573,26.8111691 L2.85371369,75.3603922 Z" id="Shape"></path>
                                            </g>
                                            <g id="a-link" transform="translate(53.440973, 48.785396) rotate(15.000000) translate(-53.440973, -48.785396) translate(8.940973, 10.285396)">
                                                <g id="a" transform="translate(0.108111, 0.834334)">
                                                    <ellipse id="Oval" transform="translate(82.988875, 5.006596) rotate(7.500000) translate(-82.988875, -5.006596) " cx="82.9888748" cy="5.00659569" rx="4.04133221" ry="4.0457686"></ellipse>
                                                    <path d="M2.85371369,75.3603922 L5.62491292,26.8111691 L2.85371369,3.69249138 L0.0825144573,26.8111691 L2.85371369,75.3603922 Z" id="Shape"></path>
                                                </g>
                                            </g>
                                        </g>
                                        <g id="b-link" transform="translate(73.181348, 71.083695) rotate(30.000000) translate(-73.181348, -71.083695) translate(17.681348, 21.583695)">
                                            <g id="b" transform="translate(0.310827, 0.108276)">
                                                <g id="a" transform="translate(21.638326, 1.830003)">
                                                    <ellipse id="Oval" transform="translate(82.988875, 5.006596) rotate(7.500000) translate(-82.988875, -5.006596) " cx="82.9888748" cy="5.00659569" rx="4.04133221" ry="4.0457686"></ellipse>
                                                    <path d="M2.85371369,75.3603922 L5.62491292,26.8111691 L2.85371369,3.69249138 L0.0825144573,26.8111691 L2.85371369,75.3603922 Z" id="Shape"></path>
                                                </g>
                                                <g id="a-link" transform="translate(53.440973, 48.785396) rotate(15.000000) translate(-53.440973, -48.785396) translate(8.940973, 10.285396)">
                                                    <g id="a" transform="translate(0.108111, 0.834334)">
                                                        <ellipse id="Oval" transform="translate(82.988875, 5.006596) rotate(7.500000) translate(-82.988875, -5.006596) " cx="82.9888748" cy="5.00659569" rx="4.04133221" ry="4.0457686"></ellipse>
                                                        <path d="M2.85371369,75.3603922 L5.62491292,26.8111691 L2.85371369,3.69249138 L0.0825144573,26.8111691 L2.85371369,75.3603922 Z" id="Shape"></path>
                                                    </g>
                                                </g>
                                            </g>
                                        </g>
                                    </g>
                                    <g id="c-link" transform="translate(102.081387, 105.667339) rotate(60.000000) translate(-102.081387, -105.667339) translate(22.081387, 34.167339)">
                                        <g id="c" transform="translate(0.350781, 0.343901)">
                                            <g id="b" transform="translate(48.634084, 13.443418)">
                                                <g id="a" transform="translate(21.638326, 1.830003)">
                                                    <ellipse id="Oval" transform="translate(82.988875, 5.006596) rotate(7.500000) translate(-82.988875, -5.006596) " cx="82.9888748" cy="5.00659569" rx="4.04133221" ry="4.0457686"></ellipse>
                                                    <path d="M2.85371369,75.3603922 L5.62491292,26.8111691 L2.85371369,3.69249138 L0.0825144573,26.8111691 L2.85371369,75.3603922 Z" id="Shape"></path>
                                                </g>
                                                <g id="a-link" transform="translate(53.440973, 48.785396) rotate(15.000000) translate(-53.440973, -48.785396) translate(8.940973, 10.285396)">
                                                    <g id="a" transform="translate(0.108111, 0.834334)">
                                                        <ellipse id="Oval" transform="translate(82.988875, 5.006596) rotate(7.500000) translate(-82.988875, -5.006596) " cx="82.9888748" cy="5.00659569" rx="4.04133221" ry="4.0457686"></ellipse>
                                                        <path d="M2.85371369,75.3603922 L5.62491292,26.8111691 L2.85371369,3.69249138 L0.0825144573,26.8111691 L2.85371369,75.3603922 Z" id="Shape"></path>
                                                    </g>
                                                </g>
                                            </g>
                                            <g id="b-link" transform="translate(73.181348, 71.083695) rotate(30.000000) translate(-73.181348, -71.083695) translate(17.681348, 21.583695)">
                                                <g id="b" transform="translate(0.310827, 0.108276)">
                                                    <g id="a" transform="translate(21.638326, 1.830003)">
                                                        <ellipse id="Oval" transform="translate(82.988875, 5.006596) rotate(7.500000) translate(-82.988875, -5.006596) " cx="82.9888748" cy="5.00659569" rx="4.04133221" ry="4.0457686"></ellipse>
                                                        <path d="M2.85371369,75.3603922 L5.62491292,26.8111691 L2.85371369,3.69249138 L0.0825144573,26.8111691 L2.85371369,75.3603922 Z" id="Shape"></path>
                                                    </g>
                                                    <g id="a-link" transform="translate(53.440973, 48.785396) rotate(15.000000) translate(-53.440973, -48.785396) translate(8.940973, 10.285396)">
                                                        <g id="a" transform="translate(0.108111, 0.834334)">
                                                            <ellipse id="Oval" transform="translate(82.988875, 5.006596) rotate(7.500000) translate(-82.988875, -5.006596) " cx="82.9888748" cy="5.00659569" rx="4.04133221" ry="4.0457686"></ellipse>
                                                            <path d="M2.85371369,75.3603922 L5.62491292,26.8111691 L2.85371369,3.69249138 L0.0825144573,26.8111691 L2.85371369,75.3603922 Z" id="Shape"></path>
                                                        </g>
                                                    </g>
                                                </g>
                                            </g>
                                        </g>
                                    </g>
                                </g>
                            </g>
                        </g>
                    </g>
                    <text id="Ashok-Mission-Educat" font-family="RobotoCondensed-Bold, Roboto Condensed" font-size="64" font-style="condensed" font-weight="bold" line-spacing="58" letter-spacing="1.60000002" fill="#19227D">
                        <tspan x="288" y="175">Ashok Mission</tspan>
                        <tspan x="288" y="233">Educational </tspan>
                        <tspan x="288" y="291">Societ</tspan>
                        <tspan x="459.85" y="291">y</tspan>
                    </text>
                    <text id="We-receive-to-give" font-family="Roboto-Regular, Roboto" font-size="24" font-weight="normal" letter-spacing="0.337499976" fill="#19227D">
                        <tspan x="536" y="272">We receive to give</tspan>
                    </text>
                </g>
            </g>
        </g>
    </g>
</svg>